<?xml version="1.0" encoding="utf-8"?>
<svg width="123px" height="36px" viewBox="0 0 123 36" version="1.1" xmlns:xlink="http://www.w3.org/1999/xlink" xmlns="http://www.w3.org/2000/svg">
  <desc>Created with Lunacy</desc>
  <g id="Group-2">
    <path d="M9.45 22.2Q7.65 22.2 6.3 21.435Q4.95 20.67 4.17 19.29L4.17 21.9L0 21.9L0 0L4.8 0L4.8 8.73Q5.58 7.38 6.885 6.615C7.755 6.105 8.78 5.85 9.96 5.85Q11.46 5.85 12.72 6.495C13.56 6.925 14.28 7.51 14.88 8.25C15.48 8.99 15.95 9.865 16.29 10.875Q16.8 12.39 16.8 14.1Q16.8 15.81 16.245 17.295C15.875 18.285 15.36 19.145 14.7 19.875Q13.71 20.97 12.36 21.585Q11.01 22.2 9.45 22.2ZM26.7 22.2Q24.69 22.2 23.115 21.54Q21.54 20.88 20.46 19.755C19.74 19.005 19.195 18.135 18.825 17.145C18.455 16.155 18.27 15.12 18.27 14.04Q18.27 12.42 18.825 10.935Q19.38 9.45 20.46 8.325Q21.54 7.2 23.115 6.525Q24.69 5.85 26.7 5.85C28.04 5.85 29.23 6.075 30.27 6.525C31.31 6.975 32.19 7.575 32.91 8.325Q33.99 9.45 34.56 10.935C34.94 11.925 35.13 12.96 35.13 14.04C35.13 15.12 34.945 16.155 34.575 17.145C34.205 18.135 33.66 19.005 32.94 19.755C32.22 20.505 31.335 21.1 30.285 21.54Q28.71 22.2 26.7 22.2ZM47.88 21.9L52.68 21.9L52.68 11.82Q52.68 10.83 52.515 9.78C52.405 9.08 52.18 8.435 51.84 7.845C51.5 7.255 51.02 6.775 50.4 6.405Q49.47 5.85 47.94 5.85C46.56 5.85 45.34 6.105 44.28 6.615Q42.69 7.38 41.82 8.79L41.82 6.15L37.5 6.15L37.5 21.9L42.3 21.9L42.3 12.87C42.44 12.47 42.635 12.1 42.885 11.76C43.135 11.42 43.42 11.125 43.74 10.875C44.06 10.625 44.39 10.43 44.73 10.29Q45.24 10.08 45.75 10.08Q46.71 10.08 47.295 10.785C47.685 11.255 47.88 12.01 47.88 13.05L47.88 21.9ZM58.155 21.825C58.825 22.075 59.55 22.2 60.33 22.2C61.41 22.2 62.435 21.96 63.405 21.48C64.375 21 65.21 20.31 65.91 19.41L66 20.13C66.12 20.77 66.41 21.265 66.87 21.615C67.33 21.965 68.01 22.14 68.91 22.14C69.19 22.14 69.5 22.125 69.84 22.095C70.18 22.065 70.56 22 70.98 21.9L70.98 17.85C70.6 17.81 70.335 17.695 70.185 17.505C70.035 17.315 69.96 16.98 69.96 16.5L69.96 12.45C69.96 10.29 69.31 8.65 68.01 7.53C66.71 6.41 64.87 5.85 62.49 5.85C61.23 5.85 60.04 6.02 58.92 6.36C57.8 6.7 56.72 7.21 55.68 7.89L57.09 10.89C57.95 10.31 58.77 9.875 59.55 9.585Q60.72 9.15 62.01 9.15C64.11 9.15 65.16 10.06 65.16 11.88L65.16 12.6C64.7 12.38 64.16 12.215 63.54 12.105C62.92 11.995 62.28 11.94 61.62 11.94Q60.12 11.94 58.89 12.33C58.07 12.59 57.36 12.95 56.76 13.41C56.16 13.87 55.695 14.42 55.365 15.06C55.035 15.7 54.87 16.41 54.87 17.19C54.87 17.91 55.01 18.575 55.29 19.185C55.57 19.795 55.95 20.325 56.43 20.775C56.91 21.225 57.485 21.575 58.155 21.825ZM88.6201 21.9L83.8201 21.9L83.8201 13.05C83.8201 12.01 83.6251 11.255 83.2351 10.785Q82.6501 10.08 81.6901 10.08C81.3501 10.08 81.0101 10.15 80.6701 10.29C80.3301 10.43 80.0001 10.625 79.6801 10.875C79.3601 11.125 79.0751 11.42 78.8251 11.76C78.5751 12.1 78.3801 12.47 78.2401 12.87L78.2401 21.9L73.4401 21.9L73.4401 6.15L77.7601 6.15L77.7601 8.79Q78.6301 7.38 80.2201 6.615Q81.8101 5.85 83.8801 5.85Q85.4101 5.85 86.3401 6.405C86.9601 6.775 87.4401 7.255 87.7801 7.845Q88.2901 8.73 88.4551 9.78Q88.6201 10.83 88.6201 11.82L88.6201 21.9ZM108.915 21.825C109.585 22.075 110.31 22.2 111.09 22.2C112.17 22.2 113.195 21.96 114.165 21.48C115.135 21 115.97 20.31 116.67 19.41L116.76 20.13C116.88 20.77 117.17 21.265 117.63 21.615Q118.32 22.14 119.67 22.14Q120.09 22.14 120.6 22.095C120.94 22.065 121.32 22 121.74 21.9L121.74 17.85C121.36 17.81 121.095 17.695 120.945 17.505C120.795 17.315 120.72 16.98 120.72 16.5L120.72 12.45C120.72 10.29 120.07 8.65 118.77 7.53C117.47 6.41 115.63 5.85 113.25 5.85C111.99 5.85 110.8 6.02 109.68 6.36C108.56 6.7 107.48 7.21 106.44 7.89L107.85 10.89C108.71 10.31 109.53 9.875 110.31 9.585Q111.48 9.15 112.77 9.15C114.87 9.15 115.92 10.06 115.92 11.88L115.92 12.6C115.46 12.38 114.92 12.215 114.3 12.105Q113.37 11.94 112.38 11.94C111.38 11.94 110.47 12.07 109.65 12.33C108.83 12.59 108.12 12.95 107.52 13.41C106.92 13.87 106.455 14.42 106.125 15.06C105.795 15.7 105.63 16.41 105.63 17.19Q105.63 18.27 106.05 19.185C106.33 19.795 106.71 20.325 107.19 20.775C107.67 21.225 108.245 21.575 108.915 21.825ZM98.91 9.48L90.87 19.02L90.87 21.9L104.13 21.9L104.13 18.57L95.94 18.57L103.92 9.03L103.92 6.15L91.29 6.15L91.29 9.48L98.91 9.48ZM9.63005 17.835C9.17005 18.045 8.66005 18.15 8.10005 18.15Q7.11005 18.15 6.19505 17.565Q5.28005 16.98 4.80005 15.96L4.80005 12.66Q5.31005 11.49 6.25505 10.71C6.88505 10.19 7.58005 9.93 8.34005 9.93C8.84005 9.93 9.31005 10.04 9.75005 10.26C10.19 10.48 10.565 10.78 10.875 11.16C11.185 11.54 11.43 11.985 11.6101 12.495C11.79 13.005 11.88 13.54 11.88 14.1C11.88 14.68 11.785 15.215 11.595 15.705C11.405 16.195 11.145 16.62 10.815 16.98C10.485 17.34 10.09 17.625 9.63005 17.835ZM24.1799 17.025Q23.1899 15.9 23.1899 14.04C23.1899 13.44 23.2799 12.885 23.4599 12.375C23.6399 11.865 23.8849 11.43 24.1949 11.07C24.5049 10.71 24.8749 10.43 25.3049 10.23Q25.9499 9.93 26.6999 9.93Q28.1999 9.93 29.1899 11.055C29.8499 11.805 30.1799 12.8 30.1799 14.04Q30.1799 14.94 29.9099 15.705C29.7299 16.215 29.4849 16.65 29.1749 17.01C28.8649 17.37 28.4999 17.65 28.0799 17.85C27.6599 18.05 27.1999 18.15 26.6999 18.15Q25.1699 18.15 24.1799 17.025ZM61.74 18.75C62.26 18.75 62.765 18.66 63.255 18.48C63.745 18.3 64.15 18.06 64.47 17.76C64.93 17.4 65.16 17.02 65.16 16.62L65.16 15.12C64.74 14.96 64.285 14.835 63.795 14.745C63.305 14.655 62.85 14.61 62.43 14.61C61.55 14.61 60.825 14.81 60.255 15.21C59.685 15.61 59.4 16.13 59.4 16.77C59.4 17.35 59.62 17.825 60.06 18.195C60.5 18.565 61.06 18.75 61.74 18.75ZM112.5 18.75C113.02 18.75 113.525 18.66 114.015 18.48C114.505 18.3 114.91 18.06 115.23 17.76C115.69 17.4 115.92 17.02 115.92 16.62L115.92 15.12Q115.29 14.88 114.555 14.745C114.065 14.655 113.61 14.61 113.19 14.61C112.31 14.61 111.585 14.81 111.015 15.21C110.445 15.61 110.16 16.13 110.16 16.77C110.16 17.35 110.38 17.825 110.82 18.195C111.26 18.565 111.82 18.75 112.5 18.75Z" transform="translate(0.9780273 0)" id="bonanza" fill="#FF0000" fill-rule="evenodd" stroke="none" />
    <path d="M3.936 8.592Q3.072 8.592 2.352 8.232Q1.632 7.872 1.112 7.272Q0.592 6.672 0.296 5.904Q0 5.136 0 4.32Q0 3.472 0.28 2.688Q0.56 1.904 1.072 1.304Q1.584 0.704001 2.296 0.352Q3.008 0 3.872 0Q4.96 0 5.768 0.568Q6.576 1.136 7.136 1.952L7.136 0.144L7.872 0.144L7.872 8.624C7.872 9.18933 7.76533 9.68533 7.552 10.112C7.33867 10.5387 7.05333 10.8933 6.696 11.176C6.33867 11.4587 5.92267 11.672 5.448 11.816Q4.736 12.032 3.952 12.032C3.472 12.032 3.04 11.9867 2.656 11.896Q2.08 11.76 1.64 11.512C1.34667 11.3467 1.08533 11.144 0.856 10.904Q0.512 10.544 0.256 10.112L0.8 9.744C1.13067 10.3093 1.57867 10.7227 2.144 10.984Q2.992 11.376 3.952 11.376C4.37867 11.376 4.78133 11.3173 5.16 11.2C5.53867 11.0827 5.86933 10.9093 6.152 10.68Q6.576 10.336 6.824 9.824Q7.072 9.312 7.072 8.624L7.072 6.8C6.73067 7.344 6.27733 7.77867 5.712 8.104Q4.864 8.592 3.936 8.592ZM12.4161 8.624C12.0321 8.624 11.6747 8.55733 11.3441 8.424C11.0134 8.29067 10.7227 8.10933 10.4721 7.88C10.2214 7.65067 10.0267 7.37867 9.88805 7.064Q9.68005 6.592 9.68005 6.048C9.68005 5.68533 9.76539 5.35467 9.93605 5.056C10.1067 4.75733 10.3441 4.49867 10.6481 4.28Q11.1041 3.952 11.7441 3.768C12.1707 3.64533 12.6401 3.584 13.1521 3.584C13.6001 3.584 14.0507 3.624 14.5041 3.704Q15.1841 3.824 15.7281 4.032L15.7281 3.216Q15.7281 2.032 15.0561 1.336Q14.3841 0.640001 13.2321 0.64C12.8267 0.64 12.3974 0.725334 11.9441 0.896Q11.2641 1.152 10.5601 1.632L10.2561 1.088Q11.8561 0 13.2961 0Q14.8001 0 15.6641 0.872Q16.5281 1.744 16.5281 3.28L16.5281 7.344Q16.5281 7.56943 16.6399 7.66781Q16.7264 7.744 16.8801 7.744L16.8801 8.464C16.8267 8.47467 16.7707 8.48267 16.7121 8.488Q16.6241 8.496 16.5601 8.496C16.3467 8.496 16.1761 8.424 16.0481 8.28C15.9201 8.136 15.8454 7.96267 15.8241 7.76L15.8241 7.072Q15.2481 7.824 14.3521 8.224Q13.4561 8.624 12.4161 8.624ZM30.384 8.464L31.184 8.464L31.184 3.68Q31.184 1.936 30.6 0.968Q30.016 0 28.656 0Q26.576 0 25.392 2.256Q25.264 1.248 24.608 0.624001C24.1706 0.208 23.6 0 22.896 0Q21.888 0 21.056 0.56Q20.224 1.12 19.712 2.128L19.712 0.144L18.96 0.144L18.96 8.464L19.76 8.464L19.76 3.312C19.8666 2.928 20.0186 2.57867 20.216 2.264C20.4133 1.94933 20.64 1.67733 20.896 1.448C21.152 1.21867 21.432 1.04267 21.736 0.920001C22.04 0.797334 22.3626 0.736001 22.704 0.736001Q23.712 0.736001 24.192 1.48C24.512 1.976 24.672 2.75733 24.672 3.824L24.672 8.464L25.472 8.464L25.472 3.328C25.5786 2.944 25.7253 2.59467 25.912 2.28C26.0986 1.96533 26.32 1.69333 26.576 1.464Q26.96 1.12 27.424 0.928001Q27.888 0.736001 28.4 0.736001Q29.408 0.736 29.896 1.488C30.2213 1.98933 30.384 2.768 30.384 3.824L30.384 8.464ZM35.504 8.28C36.0054 8.50933 36.5494 8.624 37.136 8.624Q37.712 8.624 38.256 8.472C38.6187 8.37067 38.952 8.22933 39.256 8.048C39.56 7.86667 39.8267 7.65067 40.056 7.4C40.2854 7.14933 40.4587 6.87467 40.576 6.576L39.872 6.384C39.7654 6.61867 39.6187 6.83467 39.432 7.032C39.2454 7.22933 39.032 7.39733 38.792 7.536C38.552 7.67467 38.2934 7.784 38.016 7.864C37.7387 7.944 37.456 7.984 37.168 7.984C36.7307 7.984 36.32 7.89867 35.936 7.728C35.552 7.55733 35.2134 7.32267 34.92 7.024C34.6267 6.72533 34.384 6.37067 34.192 5.96Q33.904 5.344 33.856 4.624L41.152 4.624C41.1627 4.60267 41.168 4.552 41.168 4.472L41.168 4.272C41.168 3.696 41.0667 3.14933 40.864 2.632C40.6614 2.11467 40.3787 1.66133 40.016 1.272C39.6534 0.882667 39.2214 0.573334 38.72 0.344C38.2187 0.114666 37.6747 0 37.088 0Q36.224 0 35.48 0.336C34.984 0.560001 34.5547 0.866668 34.192 1.256C33.8294 1.64533 33.544 2.09867 33.336 2.616Q33.024 3.392 33.024 4.272Q33.024 5.168 33.336 5.952C33.544 6.47467 33.832 6.936 34.2 7.336C34.568 7.736 35.0027 8.05067 35.504 8.28ZM45.568 8.624C44.928 8.624 44.3147 8.51733 43.728 8.304C43.1413 8.09067 42.6293 7.77067 42.192 7.344L42.592 6.8C43.04 7.20533 43.504 7.504 43.984 7.696Q44.704 7.984 45.568 7.984Q46.656 7.984 47.32 7.528C47.7627 7.224 47.984 6.8 47.984 6.256C47.984 6 47.928 5.784 47.816 5.608C47.704 5.432 47.536 5.28267 47.312 5.16C47.088 5.03733 46.8107 4.928 46.48 4.832C46.1493 4.736 45.7654 4.63467 45.328 4.528C44.8587 4.42133 44.4507 4.31467 44.104 4.208C43.7573 4.10133 43.472 3.97333 43.248 3.824C43.024 3.67467 42.856 3.49333 42.744 3.28C42.632 3.06667 42.576 2.79467 42.576 2.464C42.576 2.048 42.656 1.68533 42.816 1.376Q43.056 0.912001 43.48 0.608C43.7627 0.405334 44.088 0.253334 44.456 0.152C44.824 0.0506668 45.216 0 45.632 0Q46.608 0 47.36 0.328C47.8613 0.546667 48.2507 0.826667 48.528 1.168L48.08 1.6Q47.664 1.12 47 0.88Q46.336 0.64 45.584 0.64C45.2747 0.64 44.984 0.672 44.712 0.736001C44.44 0.800001 44.2027 0.901334 44 1.04C43.7973 1.17867 43.6373 1.35733 43.52 1.576C43.4027 1.79467 43.344 2.05333 43.344 2.352C43.344 2.59733 43.384 2.79467 43.464 2.944C43.544 3.09333 43.672 3.22133 43.848 3.328C44.024 3.43467 44.2507 3.528 44.528 3.608C44.8053 3.688 45.136 3.776 45.52 3.872C46.0427 4 46.5067 4.12267 46.912 4.24C47.3173 4.35733 47.656 4.50133 47.928 4.672Q48.336 4.928 48.552 5.28C48.696 5.51467 48.768 5.81333 48.768 6.176C48.768 6.92267 48.4773 7.51733 47.896 7.96C47.3147 8.40267 46.5387 8.624 45.568 8.624ZM40.4 3.984C40.368 3.49333 40.2586 3.04533 40.072 2.64C39.8853 2.23467 39.6453 1.88533 39.352 1.592C39.0586 1.29867 38.72 1.06933 38.336 0.904Q37.76 0.656001 37.104 0.656C36.6666 0.656001 36.256 0.738667 35.872 0.904C35.488 1.06933 35.1493 1.29867 34.856 1.592C34.5626 1.88533 34.328 2.23733 34.152 2.648Q33.888 3.264 33.84 3.984L40.4 3.984ZM5.16004 7.704C4.82404 7.83734 4.48004 7.904 4.12804 7.904Q3.44004 7.904 2.83204 7.616Q2.22404 7.328 1.77604 6.832C1.47737 6.50133 1.24271 6.12267 1.07204 5.696C0.901373 5.26933 0.81604 4.816 0.81604 4.336Q0.81604 3.68 1.03204 3.032C1.17604 2.6 1.38404 2.21334 1.65604 1.872Q2.06404 1.36 2.65604 1.04Q3.24804 0.720001 4.00004 0.720001Q4.48004 0.720001 4.95204 0.888001C5.26671 1 5.56004 1.152 5.83204 1.344C6.10404 1.536 6.34671 1.768 6.56004 2.04C6.77337 2.312 6.94404 2.608 7.07204 2.928L7.07204 5.664C7.02937 5.93067 6.92004 6.19734 6.74404 6.464C6.56804 6.73067 6.34404 6.97067 6.07204 7.184C5.80004 7.39733 5.49604 7.57067 5.16004 7.704ZM14.28 7.632Q13.504 7.984 12.576 7.984C12.2773 7.984 11.9973 7.93333 11.736 7.832C11.4747 7.73067 11.248 7.592 11.056 7.416C10.864 7.24 10.7147 7.02933 10.608 6.784Q10.448 6.416 10.448 6Q10.448 5.584 10.648 5.24C10.7813 5.01067 10.9707 4.816 11.216 4.656C11.4613 4.496 11.7547 4.37067 12.096 4.28Q12.608 4.144 13.232 4.144Q13.904 4.144 14.528 4.256C14.944 4.33067 15.344 4.44267 15.728 4.592L15.728 6.064Q15.728 6.368 15.472 6.704C15.1947 7.088 14.7973 7.39733 14.28 7.632Z" transform="translate(0 23.466)" id="games" fill="#FFFFFF" fill-rule="evenodd" stroke="none" />
  </g>
</svg>